name C:\Users\u0101727\Documents\MyRepositories\paper-ad\predictivesimulations_2d/Results/PredSim_2D/IK_c13.mot
datacolumns 11
datarows 43
range 1.27593154 1.67885729
endheader
time	pelvis_tilt	pelvis_tx	pelvis_ty	hip_flexion_l	hip_flexion_r	knee_angle_l	knee_angle_r	ankle_angle_l	ankle_angle_r	lumbar_extension	
          1.27593154	        -15.13137959	          1.69366997	          0.90060937	         33.21827365	         10.39933621	        -37.56392418	         -7.29628243	         15.70354173	         11.30088092	          9.45695697	
          1.28552501	        -15.13067188	          1.70565747	          0.89975152	         34.18670365	          9.62362705	        -36.09117724	         -7.34401460	         15.98931242	         11.31119788	          9.41710526	
          1.29511848	        -15.13104565	          1.71770042	          0.89883561	         35.09399825	          8.86555834	        -34.50178857	         -7.42744934	         16.19418125	         11.30934270	          9.38050133	
          1.30471195	        -15.13289693	          1.72980530	          0.89786049	         35.93665740	          8.12408142	        -32.80338580	         -7.54551846	         16.32726847	         11.29889171	          9.34745715	
          1.31430542	        -15.13654819	          1.74198021	          0.89682498	         36.71011100	          7.39884923	        -31.00742619	         -7.69851054	         16.39735900	         11.28063153	          9.31835701	
          1.32389889	        -15.14206475	          1.75423718	          0.89573176	         37.40768073	          6.69076367	        -29.14016066	         -7.89011336	         16.41259932	         11.25293526	          9.29378749	
          1.33349236	        -15.14947159	          1.76659445	          0.89459328	         38.01645747	          6.00185125	        -27.23588247	         -8.12656782	         16.38027895	         11.20976465	          9.27505221	
          1.34308583	        -15.15878779	          1.77907358	          0.89343127	         38.52065845	          5.33527337	        -25.32679853	         -8.41500476	         16.30679353	         11.13869412	          9.26387423	
          1.35267930	        -15.16969297	          1.79169336	          0.89226828	         38.91083806	          4.69544463	        -23.44076199	         -8.76390879	         16.19753086	         11.02343488	          9.26144223	
          1.36227277	        -15.18139157	          1.80446839	          0.89112225	         39.18684762	          4.08762708	        -21.59963061	         -9.18313129	         16.05661363	         10.84745703	          9.26816430	
          1.37186624	        -15.19267172	          1.81741154	          0.89000749	         39.35557569	          3.51709987	        -19.82502696	         -9.68297513	         15.88663885	         10.59648580	          9.28396915	
          1.38145971	        -15.20231257	          1.83053666	          0.88893613	         39.42424262	          2.98874647	        -18.13177324	        -10.27312016	         15.68879942	         10.25767908	          9.30894711	
          1.39105318	        -15.20917073	          1.84385822	          0.88791737	         39.39966279	          2.50700284	        -16.53163229	        -10.96213917	         15.46299112	          9.81889223	          9.34333748	
          1.40064665	        -15.21199184	          1.85739041	          0.88695645	         39.28942920	          2.07648144	        -15.04164177	        -11.75902493	         15.20793371	          9.26928153	          9.38727995	
          1.41024012	        -15.20951293	          1.87114762	          0.88605444	         39.09858708	          1.70270173	        -13.67636082	        -12.67406739	         14.92161313	          8.59787876	          9.44106681	
          1.41983359	        -15.20032921	          1.88514346	          0.88520704	         38.83191724	          1.39157107	        -12.45568078	        -13.71819193	         14.60114985	          7.79425106	          9.50494949	
          1.42942706	        -15.18288449	          1.89938965	          0.88440310	         38.49477537	          1.14874195	        -11.40838802	        -14.90159404	         14.24274387	          6.85089834	          9.57907815	
          1.43902053	        -15.15573932	          1.91389731	          0.88362354	         38.08748274	          0.97900221	        -10.56533819	        -16.23356648	         13.84203081	          5.76785334	          9.66404409	
          1.44861400	        -15.11770349	          1.92867468	          0.88283680	         37.60299443	          0.88527585	         -9.96017017	        -17.72709089	         13.39402096	          4.56748437	          9.76090872	
          1.45820747	        -15.06862288	          1.94371547	          0.88199903	         37.02332767	          0.87028488	         -9.64102354	        -19.38809690	         12.89391422	          3.26332148	          9.87081483	
          1.46780094	        -15.01105448	          1.95900266	          0.88113363	         36.28040543	          0.94126197	         -9.72847119	        -21.21347567	         12.33963812	          1.83540808	          9.99773708	
          1.47739441	        -14.95320859	          1.97435040	          0.88036753	         35.41736556	          1.10284415	        -10.04280850	        -23.18466206	         11.77053388	          0.36916101	         10.13224814	
          1.48698789	        -14.90606199	          1.98941797	          0.87993022	         34.55940423	          1.38187393	        -10.32308128	        -25.20920109	         11.22054092	         -0.91396891	         10.25110971	
          1.49658136	        -14.87817330	          2.00395832	          0.88008354	         33.74377796	          1.80663168	        -10.58144909	        -27.14692378	         10.68952615	         -1.91602465	         10.34040609	
          1.50617483	        -14.87187859	          2.01790847	          0.88098337	         32.97293809	          2.37302435	        -10.81278903	        -28.93519526	         10.19213871	         -2.66635629	         10.39899178	
          1.51576830	        -14.88249334	          2.03135170	          0.88258891	         32.22836539	          3.06424663	        -11.00511431	        -30.59466822	          9.74465567	         -3.17440760	         10.43301564	
          1.52536177	        -14.90342661	          2.04441222	          0.88469035	         31.48894287	          3.85976554	        -11.14949652	        -32.15446929	          9.35855615	         -3.45293631	         10.44950160	
          1.53495524	        -14.92931189	          2.05719748	          0.88705506	         30.73786640	          4.74402968	        -11.23912613	        -33.63221307	          9.04010952	         -3.51752209	         10.45375853	
          1.54454871	        -14.95671039	          2.06978174	          0.88950031	         29.96569361	          5.70501577	        -11.27209061	        -35.03635736	          8.79092940	         -3.38319658	         10.44897983	
          1.55414218	        -14.98372872	          2.08221195	          0.89190246	         29.16789396	          6.73371940	        -11.24881585	        -36.36821946	          8.60997994	         -3.06625758	         10.43692320	
          1.56373565	        -15.00940724	          2.09451819	          0.89418228	         28.34292033	          7.82273911	        -11.17130391	        -37.62470603	          8.49461717	         -2.58344031	         10.41860109	
          1.57332912	        -15.03325500	          2.10672075	          0.89628938	         27.49114436	          8.96589707	        -11.04303358	        -38.80092587	          8.44110026	         -1.95160758	         10.39462681	
          1.58292259	        -15.05500265	          2.11883471	          0.89819132	         26.61421567	         10.15764300	        -10.86884964	        -39.89079031	          8.44488962	         -1.18770604	         10.36544862	
          1.59251606	        -15.07448350	          2.13087248	          0.89986713	         25.71473405	         11.39261833	        -10.65479311	        -40.88754607	          8.50083669	         -0.30890813	         10.33148018	
          1.60210953	        -15.09157153	          2.14284498	          0.90130417	         24.79600249	         12.66540648	        -10.40788371	        -41.78398939	          8.60335444	          0.66739309	         10.29313503	
          1.61170300	        -15.10617503	          2.15476167	          0.90249758	         23.86199834	         13.97064176	        -10.13613083	        -42.57252136	          8.74663427	          1.72363233	         10.25079959	
          1.62129647	        -15.11828292	          2.16663018	          0.90345060	         22.91715230	         15.30330474	         -9.84734008	        -43.24501715	          8.92481077	          2.84214004	         10.20479971	
          1.63088994	        -15.12801942	          2.17845783	          0.90417387	         21.96535701	         16.65742158	         -9.54856307	        -43.79394263	          9.13138364	          4.00510509	         10.15561208	
          1.64048341	        -15.13554515	          2.19025083	          0.90468437	         21.01079293	         18.02717369	         -9.24736977	        -44.21160257	          9.35867593	          5.19468539	         10.10366170	
          1.65007688	        -15.14100083	          2.20201472	          0.90500290	         20.05802937	         19.40706527	         -8.95161251	        -44.49019919	          9.59865701	          6.39306930	         10.04929040	
          1.65967035	        -15.14453335	          2.21375548	          0.90515091	         19.11186824	         20.79060642	         -8.66966278	        -44.62278784	          9.84339281	          7.58247048	          9.99287816	
          1.66926382	        -15.14636433	          2.22548016	          0.90514867	         18.17553430	         22.17087897	         -8.40712712	        -44.60372764	         10.08555655	          8.74522176	          9.93496040	
          1.67885729	        -15.14681043	          2.23719708	          0.90501434	         17.24984439	         23.54101354	         -8.16528930	        -44.42893963	         10.31850907	          9.86395558	          9.87627613	
